# xmcd
# 
# Track frame offsets:
#     182
#     19725
#     44410
#     65190
#     80237
#     103192
#     120132
#     139052
#     157325
#     176665
#     194640
#     222410
#     238327
#     255910
# 
# Disc length: 3808
# 
# Revision: 6
# Processed by: cddbd v1.5.2PL0 Copyright (c) Steve Scherf et al.
# Submitted via: fre:ac v1.0.31
# 
DISCID=d60ede0e
DTITLE=Paul PERSONNE - Patchwork Electrique
DYEAR=2000
DGENRE=Blues
TTITLE0=Aphonie cérébrale
TTITLE1=Cool rat
TTITLE2=Exit of Eden
TTITLE3=La beauté du blues
TTITLE4=Ballade pour un idiot
TTITLE5=Nuit d'orage
TTITLE6=Comment
TTITLE7=Bye Bye
TTITLE8=Par coeur
TTITLE9=Bouge d'ici
TTITLE10=On s'en sort
TTITLE11=J'roule
TTITLE12=Longue durée
TTITLE13=Ca vaut la peine ?
EXTD=YEAR: 2000
EXTT0=
EXTT1=
EXTT2=
EXTT3=
EXTT4=
EXTT5=
EXTT6=
EXTT7=
EXTT8=
EXTT9=
EXTT10=
EXTT11=
EXTT12=
EXTT13=
PLAYORDER=
